<svg class="mesh" xmlns="http://www.w3.org/2000/svg" aria-hidden="true" preserveAspectRatio="xMidYMid slice" viewBox="0 0 1440 1024">
  <defs>
    <linearGradient id="cline" x1="0" y1="0" x2="1" y2="0.45">
      <stop offset="0" stop-color="#D98FA0"/><stop offset=".5" stop-color="#C3A6D6"/><stop offset="1" stop-color="#5FB2BC"/>
    </linearGradient>
    <radialGradient id="cfade" cx="50%" cy="36%" r="74%">
      <stop offset="0" stop-color="#000"/><stop offset=".26" stop-color="#000"/><stop offset="1" stop-color="#e2e2e2"/>
    </radialGradient>
    <mask id="cmask"><rect width="1440" height="1024" fill="url(#cfade)"/></mask>
  </defs>
  <g mask="url(#cmask)">
    <path d="M-15.5 -28.1L173.3 -34.4M-15.5 -28.1L41.9 109.8M-15.5 -28.1L191.5 129.4M173.3 -34.4L323.2 -10.8M173.3 -34.4L191.5 129.4M323.2 -10.8L191.5 129.4M323.2 -10.8L441.1 0.6M323.2 -10.8L288.7 115.5M323.2 -10.8L463.1 171.7M441.1 0.6L599.3 -5.3M441.1 0.6L463.1 171.7M599.3 -5.3L463.1 171.7M599.3 -5.3L762.1 -32.9M599.3 -5.3L611.9 152.9M599.3 -5.3L812.2 136.0M762.1 -32.9L953.4 26.3M762.1 -32.9L812.2 136.0M953.4 26.3L812.2 136.0M953.4 26.3L1086.9 -22.3M953.4 26.3L964.2 111.1M953.4 26.3L1081.2 122.6M1086.9 -22.3L1291.2 36.0M1086.9 -22.3L1081.2 122.6M1291.2 36.0L1081.2 122.6M1291.2 36.0L1446.8 -8.3M1291.2 36.0L1295.9 140.5M1291.2 36.0L1423.6 153.2M1446.8 -8.3L1423.6 153.2M41.9 109.8L191.5 129.4M41.9 109.8L-4.1 276.5M191.5 129.4L-4.1 276.5M191.5 129.4L288.7 115.5M191.5 129.4L185.9 308.6M191.5 129.4L297.5 298.6M288.7 115.5L463.1 171.7M288.7 115.5L297.5 298.6M463.1 171.7L297.5 298.6M463.1 171.7L611.9 152.9M463.1 171.7L482.2 322.8M463.1 171.7L660.2 275.5M611.9 152.9L812.2 136.0M611.9 152.9L660.2 275.5M812.2 136.0L660.2 275.5M812.2 136.0L964.2 111.1M812.2 136.0L842.3 261.8M812.2 136.0L952.8 313.3M964.2 111.1L1081.2 122.6M964.2 111.1L952.8 313.3M1081.2 122.6L952.8 313.3M1081.2 122.6L1295.9 140.5M1081.2 122.6L1089.4 291.7M1081.2 122.6L1239.5 306.1M1295.9 140.5L1423.6 153.2M1295.9 140.5L1239.5 306.1M1423.6 153.2L1239.5 306.1M1423.6 153.2L1463.3 298.4M-4.1 276.5L185.9 308.6M-4.1 276.5L33.0 423.9M-4.1 276.5L177.2 446.4M185.9 308.6L297.5 298.6M185.9 308.6L177.2 446.4M297.5 298.6L177.2 446.4M297.5 298.6L482.2 322.8M297.5 298.6L327.0 435.3M297.5 298.6L509.9 474.6M482.2 322.8L660.2 275.5M482.2 322.8L509.9 474.6M660.2 275.5L509.9 474.6M660.2 275.5L842.3 261.8M660.2 275.5L637.7 452.1M660.2 275.5L761.3 455.1M842.3 261.8L952.8 313.3M842.3 261.8L761.3 455.1M952.8 313.3L761.3 455.1M952.8 313.3L1089.4 291.7M952.8 313.3L972.9 478.5M952.8 313.3L1148.3 421.5M1089.4 291.7L1239.5 306.1M1089.4 291.7L1148.3 421.5M1239.5 306.1L1148.3 421.5M1239.5 306.1L1463.3 298.4M1239.5 306.1L1269.9 452.4M1239.5 306.1L1398.0 435.8M1463.3 298.4L1398.0 435.8M33.0 423.9L177.2 446.4M33.0 423.9L-29.2 554.3M177.2 446.4L-29.2 554.3M177.2 446.4L327.0 435.3M177.2 446.4L121.2 606.7M177.2 446.4L287.4 564.8M327.0 435.3L509.9 474.6M327.0 435.3L287.4 564.8M509.9 474.6L287.4 564.8M509.9 474.6L637.7 452.1M509.9 474.6L470.4 615.0M509.9 474.6L603.1 581.1M637.7 452.1L761.3 455.1M637.7 452.1L603.1 581.1M761.3 455.1L603.1 581.1M761.3 455.1L972.9 478.5M761.3 455.1L804.4 616.0M761.3 455.1L988.1 614.4M972.9 478.5L1148.3 421.5M972.9 478.5L988.1 614.4M1148.3 421.5L988.1 614.4M1148.3 421.5L1269.9 452.4M1148.3 421.5L1100.5 578.3M1148.3 421.5L1267.6 616.1M1269.9 452.4L1398.0 435.8M1269.9 452.4L1267.6 616.1M1398.0 435.8L1267.6 616.1M1398.0 435.8L1480.3 557.1M-29.2 554.3L121.2 606.7M-29.2 554.3L-28.5 709.9M-29.2 554.3L136.5 730.2M121.2 606.7L287.4 564.8M121.2 606.7L136.5 730.2M287.4 564.8L136.5 730.2M287.4 564.8L470.4 615.0M287.4 564.8L327.8 712.3M287.4 564.8L436.4 724.9M470.4 615.0L603.1 581.1M470.4 615.0L436.4 724.9M603.1 581.1L436.4 724.9M603.1 581.1L804.4 616.0M603.1 581.1L628.5 736.8M603.1 581.1L839.9 746.8M804.4 616.0L988.1 614.4M804.4 616.0L839.9 746.8M988.1 614.4L839.9 746.8M988.1 614.4L1100.5 578.3M988.1 614.4L961.4 740.9M988.1 614.4L1135.5 695.5M1100.5 578.3L1267.6 616.1M1100.5 578.3L1135.5 695.5M1267.6 616.1L1135.5 695.5M1267.6 616.1L1480.3 557.1M1267.6 616.1L1315.2 754.0M1267.6 616.1L1473.0 755.4M1480.3 557.1L1473.0 755.4M-28.5 709.9L136.5 730.2M-28.5 709.9L-9.5 869.6M136.5 730.2L-9.5 869.6M136.5 730.2L327.8 712.3M136.5 730.2L125.1 888.5M136.5 730.2L281.5 842.9M327.8 712.3L436.4 724.9M327.8 712.3L281.5 842.9M436.4 724.9L281.5 842.9M436.4 724.9L628.5 736.8M436.4 724.9L454.4 850.5M436.4 724.9L625.9 841.7M628.5 736.8L839.9 746.8M628.5 736.8L625.9 841.7M839.9 746.8L625.9 841.7M839.9 746.8L961.4 740.9M839.9 746.8L756.0 849.7M839.9 746.8L924.9 866.7M961.4 740.9L1135.5 695.5M961.4 740.9L924.9 866.7M1135.5 695.5L924.9 866.7M1135.5 695.5L1315.2 754.0M1135.5 695.5L1078.2 907.8M1135.5 695.5L1290.0 849.4M1315.2 754.0L1473.0 755.4M1315.2 754.0L1290.0 849.4M1473.0 755.4L1290.0 849.4M1473.0 755.4L1418.2 865.4M-9.5 869.6L125.1 888.5M-9.5 869.6L-12.0 993.7M-9.5 869.6L190.7 1063.7M125.1 888.5L281.5 842.9M125.1 888.5L190.7 1063.7M281.5 842.9L190.7 1063.7M281.5 842.9L454.4 850.5M281.5 842.9L317.0 1022.7M281.5 842.9L443.6 992.0M454.4 850.5L625.9 841.7M454.4 850.5L443.6 992.0M625.9 841.7L443.6 992.0M625.9 841.7L756.0 849.7M625.9 841.7L626.2 1005.1M625.9 841.7L828.9 996.8M756.0 849.7L924.9 866.7M756.0 849.7L828.9 996.8M924.9 866.7L828.9 996.8M924.9 866.7L1078.2 907.8M924.9 866.7L918.0 1060.3M924.9 866.7L1122.5 995.6M1078.2 907.8L1290.0 849.4M1078.2 907.8L1122.5 995.6M1290.0 849.4L1122.5 995.6M1290.0 849.4L1418.2 865.4M1290.0 849.4L1283.8 985.9M1290.0 849.4L1442.5 1062.5M1418.2 865.4L1442.5 1062.5M-12.0 993.7L190.7 1063.7M190.7 1063.7L317.0 1022.7M317.0 1022.7L443.6 992.0M443.6 992.0L626.2 1005.1M626.2 1005.1L828.9 996.8M828.9 996.8L918.0 1060.3M918.0 1060.3L1122.5 995.6M1122.5 995.6L1283.8 985.9M1283.8 985.9L1442.5 1062.5" fill="none" stroke="url(#cline)" stroke-width="1.25" stroke-linejoin="round"/>
    <g fill="url(#cline)"><circle cx="-15.5" cy="-28.1" r="2.1"/><circle cx="173.3" cy="-34.4" r="2.1"/><circle cx="323.2" cy="-10.8" r="2.1"/><circle cx="441.1" cy="0.6" r="2.1"/><circle cx="599.3" cy="-5.3" r="2.1"/><circle cx="762.1" cy="-32.9" r="2.1"/><circle cx="953.4" cy="26.3" r="2.1"/><circle cx="1086.9" cy="-22.3" r="2.1"/><circle cx="1291.2" cy="36.0" r="2.1"/><circle cx="1446.8" cy="-8.3" r="2.1"/><circle cx="41.9" cy="109.8" r="2.1"/><circle cx="191.5" cy="129.4" r="2.1"/><circle cx="288.7" cy="115.5" r="2.1"/><circle cx="463.1" cy="171.7" r="2.1"/><circle cx="611.9" cy="152.9" r="2.1"/><circle cx="812.2" cy="136.0" r="2.1"/><circle cx="964.2" cy="111.1" r="2.1"/><circle cx="1081.2" cy="122.6" r="2.1"/><circle cx="1295.9" cy="140.5" r="2.1"/><circle cx="1423.6" cy="153.2" r="2.1"/><circle cx="-4.1" cy="276.5" r="2.1"/><circle cx="185.9" cy="308.6" r="2.1"/><circle cx="297.5" cy="298.6" r="2.1"/><circle cx="482.2" cy="322.8" r="2.1"/><circle cx="660.2" cy="275.5" r="2.1"/><circle cx="842.3" cy="261.8" r="2.1"/><circle cx="952.8" cy="313.3" r="2.1"/><circle cx="1089.4" cy="291.7" r="2.1"/><circle cx="1239.5" cy="306.1" r="2.1"/><circle cx="1463.3" cy="298.4" r="2.1"/><circle cx="33.0" cy="423.9" r="2.1"/><circle cx="177.2" cy="446.4" r="2.1"/><circle cx="327.0" cy="435.3" r="2.1"/><circle cx="509.9" cy="474.6" r="2.1"/><circle cx="637.7" cy="452.1" r="2.1"/><circle cx="761.3" cy="455.1" r="2.1"/><circle cx="972.9" cy="478.5" r="2.1"/><circle cx="1148.3" cy="421.5" r="2.1"/><circle cx="1269.9" cy="452.4" r="2.1"/><circle cx="1398.0" cy="435.8" r="2.1"/><circle cx="-29.2" cy="554.3" r="2.1"/><circle cx="121.2" cy="606.7" r="2.1"/><circle cx="287.4" cy="564.8" r="2.1"/><circle cx="470.4" cy="615.0" r="2.1"/><circle cx="603.1" cy="581.1" r="2.1"/><circle cx="804.4" cy="616.0" r="2.1"/><circle cx="988.1" cy="614.4" r="2.1"/><circle cx="1100.5" cy="578.3" r="2.1"/><circle cx="1267.6" cy="616.1" r="2.1"/><circle cx="1480.3" cy="557.1" r="2.1"/><circle cx="-28.5" cy="709.9" r="2.1"/><circle cx="136.5" cy="730.2" r="2.1"/><circle cx="327.8" cy="712.3" r="2.1"/><circle cx="436.4" cy="724.9" r="2.1"/><circle cx="628.5" cy="736.8" r="2.1"/><circle cx="839.9" cy="746.8" r="2.1"/><circle cx="961.4" cy="740.9" r="2.1"/><circle cx="1135.5" cy="695.5" r="2.1"/><circle cx="1315.2" cy="754.0" r="2.1"/><circle cx="1473.0" cy="755.4" r="2.1"/><circle cx="-9.5" cy="869.6" r="2.1"/><circle cx="125.1" cy="888.5" r="2.1"/><circle cx="281.5" cy="842.9" r="2.1"/><circle cx="454.4" cy="850.5" r="2.1"/><circle cx="625.9" cy="841.7" r="2.1"/><circle cx="756.0" cy="849.7" r="2.1"/><circle cx="924.9" cy="866.7" r="2.1"/><circle cx="1078.2" cy="907.8" r="2.1"/><circle cx="1290.0" cy="849.4" r="2.1"/><circle cx="1418.2" cy="865.4" r="2.1"/><circle cx="-12.0" cy="993.7" r="2.1"/><circle cx="190.7" cy="1063.7" r="2.1"/><circle cx="317.0" cy="1022.7" r="2.1"/><circle cx="443.6" cy="992.0" r="2.1"/><circle cx="626.2" cy="1005.1" r="2.1"/><circle cx="828.9" cy="996.8" r="2.1"/><circle cx="918.0" cy="1060.3" r="2.1"/><circle cx="1122.5" cy="995.6" r="2.1"/><circle cx="1283.8" cy="985.9" r="2.1"/><circle cx="1442.5" cy="1062.5" r="2.1"/></g>
  </g>
</svg>